<svg width="24" height="24" viewBox="0 0 24 24" fill="none" xmlns="http://www.w3.org/2000/svg">
<path d="M2.87541 23.7934C2.48396 23.8024 2.09663 23.7121 1.74949 23.531C1.37831 23.343 1.06536 23.0574 0.844341 22.7049C0.623326 22.3523 0.502592 21.9462 0.495098 21.5302L0.000773837 2.37892C-0.00995577 1.96366 0.0910623 1.55313 0.293254 1.19026C0.495446 0.827386 0.791412 0.525483 1.15019 0.316111C1.50896 0.106739 1.91735 -0.0024242 2.33274 4.08412e-05C2.74814 0.00250588 3.15525 0.116504 3.51152 0.330119L21.9258 9.43687C22.2606 9.63767 22.5393 9.91974 22.7361 10.257C22.9328 10.5942 23.0413 10.9756 23.0514 11.3659C23.0614 11.7563 22.9728 12.1428 22.7937 12.4897C22.6146 12.8367 22.3508 13.1327 22.0267 13.3505L4.10685 23.3952C3.74275 23.6426 3.31548 23.7808 2.87541 23.7934Z" fill="#6C63FF"/>
</svg>
